NotoSerif-CondensedBoldItalic.ufo
<glyph name="equal" format="2">
  <advance width="425"/>
  <unicode hex="003D"/>
  <outline>
    <contour>
      <point x="67" y="408" type="line"/>
      <point x="430" y="408" type="line"/>
      <point x="430" y="481" type="line"/>
      <point x="67" y="481" type="line"/>
    </contour>
    <contour>
      <point x="67" y="233" type="line"/>
      <point x="430" y="233" type="line"/>
      <point x="430" y="306" type="line"/>
      <point x="67" y="306" type="line"/>
    </contour>
  </outline>
</glyph>
<glyph name="backslash" format="2">
  <advance width="235"/>
  <unicode hex="005C"/>
  <outline>
    <contour>
      <point x="133" y="-121" type="line"/>
      <point x="198" y="-121" type="line"/>
      <point x="180" y="760" type="line"/>
      <point x="114" y="760" type="line"/>
    </contour>
  </outline>
</glyph>
<glyph name="grave" format="2">
  <advance width="329"/>
  <unicode hex="0060"/>
  <outline>
    <contour>
      <point x="297" y="606" type="curve"/>
      <point x="361" y="606" type="line"/>
      <point x="364" y="619" type="line"/>
      <point x="347" y="647"/>
      <point x="314" y="716"/>
      <point x="302" y="766" type="curve"/>
      <point x="147" y="766" type="line"/>
      <point x="144" y="756" type="line"/>
      <point x="164" y="719"/>
      <point x="240" y="638"/>
    </contour>
  </outline>
</glyph>
<glyph name="Eth" format="2">
  <advance width="659"/>
  <unicode hex="00D0"/>
  <anchor x="273" y="0" name="bottom"/>
  <anchor x="425" y="714" name="top"/>
  <anchor x="368" y="357" name="center"/>
  <anchor x="734" y="714" name="topright"/>
  <outline>
    <contour>
      <point x="68" y="341" type="line"/>
      <point x="386" y="341" type="line"/>
      <point x="400" y="406" type="line"/>
      <point x="82" y="406" type="line"/>
    </contour>
    <component base="D"/>
  </outline>
</glyph>
<glyph name="Hbar" format="2">
  <advance width="688"/>
  <unicode hex="0126"/>
  <anchor x="287" y="0" name="bottom"/>
  <anchor x="439" y="714" name="top"/>
  <anchor x="363" y="357" name="center"/>
  <anchor x="763" y="714" name="topright"/>
  <outline>
    <contour>
      <point x="67" y="499" type="line"/>
      <point x="756" y="499" type="line"/>
      <point x="768" y="553" type="line"/>
      <point x="79" y="553" type="line"/>
    </contour>
    <component base="H"/>
  </outline>
</glyph>
<glyph name="tbar" format="2">
  <advance width="376"/>
  <unicode hex="0167"/>
  <anchor x="131" y="0" name="bottom"/>
  <anchor x="271" y="659" name="top"/>
  <anchor x="245" y="268" name="center"/>
  <anchor x="413" y="536" name="topright"/>
  <outline>
    <contour>
      <point x="21" y="274" type="line"/>
      <point x="89" y="274" type="line"/>
      <point x="246" y="274" type="line"/>
      <point x="352" y="274" type="line"/>
      <point x="364" y="331" type="line"/>
      <point x="258" y="331" type="line"/>
      <point x="102" y="331" type="line"/>
      <point x="33" y="331" type="line"/>
    </contour>
    <component base="t"/>
  </outline>
</glyph>
<glyph name="florin" format="2">
  <advance width="467"/>
  <unicode hex="0192"/>
  <anchor x="90" y="-12" name="bottom"/>
  <anchor x="467" y="770" name="top"/>
  <anchor x="634" y="770" name="topright"/>
  <outline>
    <contour>
      <point x="90" y="-12" type="curve" smooth="yes"/>
      <point x="213" y="-12"/>
      <point x="291" y="49"/>
      <point x="325" y="211" type="curve" smooth="yes"/>
      <point x="378" y="464" type="line"/>
      <point x="493" y="464" type="line"/>
      <point x="509" y="536" type="line"/>
      <point x="395" y="536" type="line"/>
      <point x="408" y="599" type="line" smooth="yes"/>
      <point x="424" y="679"/>
      <point x="434" y="703"/>
      <point x="462" y="703" type="curve" smooth="yes"/>
      <point x="491" y="703"/>
      <point x="496" y="654"/>
      <point x="495" y="607" type="curve"/>
      <point x="574" y="607"/>
      <point x="616" y="635"/>
      <point x="616" y="680" type="curve" smooth="yes"/>
      <point x="616" y="730"/>
      <point x="566" y="770"/>
      <point x="470" y="770" type="curve" smooth="yes"/>
      <point x="342" y="770"/>
      <point x="270" y="705"/>
      <point x="238" y="575" type="curve" smooth="yes"/>
      <point x="228" y="536" type="line"/>
      <point x="149" y="515" type="line"/>
      <point x="136" y="464" type="line"/>
      <point x="210" y="464" type="line"/>
      <point x="152" y="185" type="line" smooth="yes"/>
      <point x="130" y="80"/>
      <point x="121" y="55"/>
      <point x="91" y="55" type="curve" smooth="yes"/>
      <point x="64" y="55"/>
      <point x="59" y="104"/>
      <point x="60" y="151" type="curve"/>
      <point x="-14" y="151"/>
      <point x="-47" y="123"/>
      <point x="-47" y="78" type="curve" smooth="yes"/>
      <point x="-47" y="28"/>
      <point x="-6" y="-12"/>
    </contour>
  </outline>
</glyph>
<glyph name="uni019A" format="2">
  <advance width="326"/>
  <unicode hex="019A"/>
  <anchor x="106" y="0" name="bottom"/>
  <anchor x="268" y="760" name="top"/>
  <anchor x="220" y="268" name="center"/>
  <anchor x="411" y="760" name="topright"/>
  <outline>
    <contour>
      <point x="15" y="356" type="line"/>
      <point x="335" y="356" type="line"/>
      <point x="351" y="417" type="line"/>
      <point x="31" y="417" type="line"/>
    </contour>
    <component base="l"/>
  </outline>
</glyph>
<glyph name="uni019B" format="2">
  <advance width="498"/>
  <unicode hex="019B"/>
  <anchor x="192" y="0" name="bottom"/>
  <anchor x="356" y="770" name="top"/>
  <outline>
    <contour>
      <point x="185" y="514" type="line"/>
      <point x="481" y="684" type="line"/>
      <point x="495" y="759" type="line"/>
      <point x="197" y="587" type="line"/>
    </contour>
    <component base="lambda"/>
  </outline>
</glyph>
<glyph name="uni01B5" format="2">
  <advance width="589"/>
  <unicode hex="01B5"/>
  <anchor x="238" y="0" name="bottom"/>
  <anchor x="390" y="714" name="top"/>
  <anchor x="664" y="714" name="topright"/>
  <outline>
    <contour>
      <point x="121" y="339" type="line"/>
      <point x="228" y="339" type="line"/>
      <point x="407" y="339" type="line"/>
      <point x="546" y="339" type="line"/>
      <point x="561" y="405" type="line"/>
      <point x="460" y="405" type="line"/>
      <point x="279" y="405" type="line"/>
      <point x="137" y="405" type="line"/>
    </contour>
    <component base="Z"/>
  </outline>
</glyph>
<glyph name="uni01E4" format="2">
  <advance width="704"/>
  <unicode hex="01E4"/>
  <anchor x="295" y="0" name="bottom"/>
  <anchor x="447" y="714" name="top"/>
  <anchor x="779" y="714" name="topright"/>
  <outline>
    <contour>
      <point x="301" y="148" type="line"/>
      <point x="655" y="148" type="line"/>
      <point x="669" y="211" type="line"/>
      <point x="315" y="211" type="line"/>
    </contour>
    <component base="G"/>
  </outline>
</glyph>
<glyph name="uni01E5" format="2">
  <advance width="492"/>
  <unicode hex="01E5"/>
  <anchor x="138" y="-240" name="bottom"/>
  <anchor x="313" y="581" name="top"/>
  <anchor x="529" y="536" name="topright"/>
  <outline>
    <contour>
      <point x="132" y="-131" type="line"/>
      <point x="463" y="-131" type="line"/>
      <point x="476" y="-72" type="line"/>
      <point x="144" y="-72" type="line"/>
    </contour>
    <component base="g"/>
  </outline>
</glyph>
<glyph name="uni023A" format="2">
  <advance width="650"/>
  <unicode hex="023A"/>
  <anchor x="268" y="0" name="bottom"/>
  <anchor x="420" y="714" name="top"/>
  <anchor x="725" y="714" name="topright"/>
  <outline>
    <contour>
      <point x="77" y="-88" type="line"/>
      <point x="151" y="-88" type="line"/>
      <point x="591" y="760" type="line"/>
      <point x="522" y="760" type="line"/>
    </contour>
    <component base="A"/>
  </outline>
</glyph>
<glyph name="uni023B" format="2">
  <advance width="575"/>
  <unicode hex="023B"/>
  <anchor x="301" y="0" name="bottom"/>
  <anchor x="453" y="714" name="top"/>
  <anchor x="650" y="714" name="topright"/>
  <outline>
    <contour>
      <point x="100" y="-88" type="line"/>
      <point x="172" y="-88" type="line"/>
      <point x="557" y="760" type="line"/>
      <point x="486" y="760" type="line"/>
    </contour>
    <component base="C"/>
  </outline>
</glyph>
<glyph name="uni023D" format="2">
  <advance width="556"/>
  <unicode hex="023D"/>
  <anchor x="221" y="0" name="bottom"/>
  <anchor x="373" y="714" name="top"/>
  <anchor x="316" y="357" name="center"/>
  <anchor x="631" y="714" name="topright"/>
  <outline>
    <contour>
      <point x="51" y="340" type="line"/>
      <point x="157" y="340" type="line"/>
      <point x="289" y="340" type="line"/>
      <point x="425" y="340" type="line"/>
      <point x="440" y="405" type="line"/>
      <point x="308" y="405" type="line"/>
      <point x="139" y="405" type="line"/>
      <point x="65" y="405" type="line"/>
    </contour>
    <component base="L"/>
  </outline>
</glyph>
<glyph name="uni0243" format="2">
  <advance width="575"/>
  <unicode hex="0243"/>
  <anchor x="231" y="0" name="bottom"/>
  <anchor x="383" y="714" name="top"/>
  <anchor x="650" y="714" name="topright"/>
  <outline>
    <contour>
      <point x="7" y="171" type="line"/>
      <point x="337" y="171" type="line"/>
      <point x="350" y="233" type="line"/>
      <point x="20" y="233" type="line"/>
    </contour>
    <component base="B"/>
  </outline>
</glyph>
<glyph name="uni0244" format="2">
  <advance width="623"/>
  <unicode hex="0244"/>
  <anchor x="255" y="0" name="bottom"/>
  <anchor x="407" y="714" name="top"/>
  <anchor x="698" y="714" name="topright"/>
  <outline>
    <contour>
      <point x="37" y="342" type="line"/>
      <point x="655" y="342" type="line"/>
      <point x="668" y="408" type="line"/>
      <point x="50" y="408" type="line"/>
    </contour>
    <component base="U"/>
  </outline>
</glyph>
<glyph name="uni0246" format="2">
  <advance width="542"/>
  <unicode hex="0246"/>
  <anchor x="214" y="0" name="bottom"/>
  <anchor x="366" y="714" name="top"/>
  <anchor x="617" y="714" name="topright"/>
  <outline>
    <contour>
      <point x="151" y="-88" type="line"/>
      <point x="223" y="-88" type="line"/>
      <point x="567" y="760" type="line"/>
      <point x="495" y="760" type="line"/>
    </contour>
    <component base="E"/>
  </outline>
</glyph>
<glyph name="uni0249" format="2">
  <advance width="311"/>
  <unicode hex="0249"/>
  <anchor x="48" y="-240" name="bottom"/>
  <anchor x="263" y="773" name="top"/>
  <anchor x="398" y="773" name="topright"/>
  <outline>
    <contour>
      <point x="3" y="248" type="line"/>
      <point x="317" y="248" type="line"/>
      <point x="330" y="310" type="line"/>
      <point x="16" y="310" type="line"/>
    </contour>
    <component base="j"/>
  </outline>
</glyph>
<glyph name="uni024D" format="2">
  <advance width="511"/>
  <unicode hex="024D"/>
  <anchor x="199" y="0" name="bottom"/>
  <anchor x="313" y="536" name="top"/>
  <anchor x="548" y="536" name="topright"/>
  <outline>
    <contour>
      <point x="6" y="259" type="line"/>
      <point x="357" y="259" type="line"/>
      <point x="371" y="320" type="line"/>
      <point x="21" y="320" type="line"/>
    </contour>
    <component base="r"/>
  </outline>
</glyph>
<glyph name="uni024F" format="2">
  <advance width="522"/>
  <unicode hex="024F"/>
  <anchor x="43" y="-240" name="bottom"/>
  <anchor x="298" y="536" name="top"/>
  <anchor x="549" y="536" name="topright"/>
  <outline>
    <contour>
      <point x="4" y="301" type="line"/>
      <point x="551" y="301" type="line"/>
      <point x="564" y="360" type="line"/>
      <point x="17" y="360" type="line"/>
    </contour>
    <component base="y"/>
  </outline>
</glyph>
<glyph name="uni025F" format="2">
  <advance width="311"/>
  <unicode hex="025F"/>
  <anchor x="48" y="-240" name="bottom"/>
  <anchor x="213" y="536" name="top"/>
  <anchor x="348" y="536" name="topright"/>
  <outline>
    <contour>
      <point x="-15" y="246" type="line"/>
      <point x="335" y="246" type="line"/>
      <point x="350" y="313" type="line"/>
      <point x="1" y="313" type="line"/>
    </contour>
    <component base="jdotless"/>
  </outline>
</glyph>
<glyph name="uni0268" format="2">
  <advance width="326"/>
  <unicode hex="0268"/>
  <anchor x="106" y="0" name="bottom"/>
  <anchor x="270" y="773" name="top"/>
  <anchor x="413" y="773" name="topright"/>
  <outline>
    <contour>
      <point x="-8" y="257" type="line"/>
      <point x="339" y="257" type="line"/>
      <point x="355" y="324" type="line"/>
      <point x="7" y="324" type="line"/>
    </contour>
    <component base="i"/>
  </outline>
</glyph>
<glyph name="uni02A1" format="2">
  <advance width="519"/>
  <unicode hex="02A1"/>
  <anchor x="173" y="0" name="bottom"/>
  <anchor x="366" y="765" name="top"/>
  <anchor x="617" y="760" name="topright"/>
  <outline>
    <contour>
      <point x="45" y="176" type="line"/>
      <point x="360" y="176" type="line"/>
      <point x="374" y="238" type="line"/>
      <point x="59" y="238" type="line"/>
    </contour>
    <component base="uni0294"/>
  </outline>
</glyph>
<glyph name="uni02BE" format="2">
  <advance width="168"/>
  <unicode hex="02BE"/>
  <outline>
    <contour>
      <point x="94" y="565" type="line"/>
      <point x="155" y="565"/>
      <point x="225" y="606"/>
      <point x="225" y="693" type="curve" smooth="yes"/>
      <point x="225" y="753"/>
      <point x="194" y="783"/>
      <point x="140" y="783" type="curve"/>
      <point x="128" y="730" type="line"/>
      <point x="152" y="729"/>
      <point x="168" y="717"/>
      <point x="168" y="691" type="curve" smooth="yes"/>
      <point x="168" y="636"/>
      <point x="129" y="621"/>
      <point x="106" y="621" type="curve"/>
    </contour>
  </outline>
</glyph>
<glyph name="uni02D5" format="2">
  <advance width="272"/>
  <unicode hex="02D5"/>
  <outline>
    <contour>
      <point x="95" y="196" type="line"/>
      <point x="148" y="196" type="line"/>
      <point x="169" y="295" type="line"/>
      <point x="248" y="295" type="line"/>
      <point x="259" y="348" type="line"/>
      <point x="47" y="348" type="line"/>
      <point x="36" y="295" type="line"/>
      <point x="116" y="295" type="line"/>
    </contour>
  </outline>
</glyph>
<glyph name="uni02F0" format="2">
  <advance width="290"/>
  <unicode hex="02F0"/>
  <outline>
    <contour>
      <point x="-68" y="-240" type="line"/>
      <point x="-28" y="-240" type="line"/>
      <point x="6" y="-200"/>
      <point x="34" y="-162"/>
      <point x="58" y="-118" type="curve"/>
      <point x="67" y="-165"/>
      <point x="81" y="-202"/>
      <point x="98" y="-240" type="curve"/>
      <point x="142" y="-240" type="line"/>
      <point x="144" y="-230" type="line"/>
      <point x="121" y="-164"/>
      <point x="115" y="-99"/>
      <point x="106" y="-25" type="curve"/>
      <point x="57" y="-25" type="line"/>
      <point x="22" y="-95"/>
      <point x="-16" y="-165"/>
      <point x="-66" y="-230" type="curve"/>
    </contour>
  </outline>
</glyph>
<glyph name="strokeshortoverlaycomb" format="2">
  <unicode hex="0335"/>
  <anchor x="8" y="290" name="_center"/>
  <outline>
    <contour>
      <point x="-174" y="252" type="line"/>
      <point x="172" y="252" type="line"/>
      <point x="190" y="327" type="line"/>
      <point x="-158" y="327" type="line"/>
    </contour>
  </outline>
</glyph>
<glyph name="uni048E" format="2">
  <advance width="573"/>
  <unicode hex="048E"/>
  <anchor x="230" y="0" name="bottom"/>
  <anchor x="382" y="714" name="top"/>
  <anchor x="648" y="714" name="topright"/>
  <outline>
    <contour>
      <point x="391" y="173" type="line"/>
      <point x="439" y="186" type="line"/>
      <point x="381" y="445" type="line"/>
      <point x="333" y="432" type="line"/>
    </contour>
    <component base="P"/>
  </outline>
</glyph>
<glyph name="uni048F" format="2">
  <advance width="567"/>
  <unicode hex="048F"/>
  <anchor x="54" y="-240" name="bottom"/>
  <anchor x="329" y="536" name="top"/>
  <anchor x="604" y="536" name="topright"/>
  <outline>
    <contour>
      <point x="349" y="-71" type="line"/>
      <point x="393" y="-46" type="line"/>
      <point x="291" y="158" type="line"/>
      <point x="247" y="135" type="line"/>
    </contour>
    <component base="p"/>
  </outline>
</glyph>
<glyph name="uni04B0" format="2">
  <advance width="615"/>
  <unicode hex="04B0"/>
  <anchor x="251" y="0" name="bottom"/>
  <anchor x="403" y="714" name="top"/>
  <anchor x="690" y="714" name="topright"/>
  <outline>
    <contour>
      <point x="110" y="191" type="line"/>
      <point x="517" y="191" type="line"/>
      <point x="529" y="246" type="line"/>
      <point x="122" y="246" type="line"/>
    </contour>
    <component base="Y"/>
  </outline>
</glyph>
<glyph name="uni04B8" format="2">
  <advance width="628"/>
  <unicode hex="04B8"/>
  <anchor x="257" y="0" name="bottom"/>
  <anchor x="409" y="714" name="top"/>
  <outline>
    <contour>
      <point x="252" y="104" type="line"/>
      <point x="300" y="104" type="line"/>
      <point x="383" y="496" type="line"/>
      <point x="335" y="496" type="line"/>
    </contour>
    <component base="afii10041"/>
  </outline>
</glyph>
<glyph name="uni04B9" format="2">
  <advance width="565"/>
  <unicode hex="04B9"/>
  <anchor x="226" y="0" name="bottom"/>
  <anchor x="340" y="536" name="top"/>
  <outline>
    <contour>
      <point x="222" y="116" type="line"/>
      <point x="265" y="116" type="line"/>
      <point x="315" y="363" type="line"/>
      <point x="272" y="363" type="line"/>
    </contour>
    <component base="afii10089"/>
  </outline>
</glyph>
<glyph name="uni1AB9" format="2">
  <unicode hex="1AB9"/>
  <anchor x="-345" y="0" name="_bottom"/>
  <anchor x="-363" y="-240" name="bottom"/>
  <outline>
    <contour>
      <point x="-377" y="-240" type="line"/>
      <point x="-284" y="26" type="line"/>
      <point x="-354" y="50" type="line"/>
      <point x="-446" y="-215" type="line"/>
    </contour>
  </outline>
</glyph>
<glyph name="uni1ABA" format="2">
  <unicode hex="1ABA"/>
  <anchor x="-351" y="0" name="_bottom"/>
  <anchor x="-374" y="-285" name="bottom"/>
  <outline>
    <contour>
      <point x="-378" y="-240" type="line"/>
      <point x="-286" y="26" type="line"/>
      <point x="-356" y="50" type="line"/>
      <point x="-447" y="-215" type="line"/>
    </contour>
    <contour>
      <point x="-408" y="-285" type="curve" smooth="yes"/>
      <point x="-372" y="-285"/>
      <point x="-346" y="-258"/>
      <point x="-346" y="-214" type="curve" smooth="yes"/>
      <point x="-346" y="-174"/>
      <point x="-369" y="-150"/>
      <point x="-403" y="-150" type="curve" smooth="yes"/>
      <point x="-439" y="-150"/>
      <point x="-465" y="-177"/>
      <point x="-465" y="-221" type="curve" smooth="yes"/>
      <point x="-465" y="-261"/>
      <point x="-442" y="-285"/>
    </contour>
  </outline>
</glyph>
<glyph name="uni1D03" format="2">
  <advance width="509"/>
  <unicode hex="1D03"/>
  <anchor x="203" y="0" name="bottom"/>
  <anchor x="317" y="536" name="top"/>
  <outline>
    <contour>
      <point x="34" y="250" type="line"/>
      <point x="523" y="250" type="line"/>
      <point x="535" y="310" type="line"/>
      <point x="47" y="310" type="line"/>
    </contour>
    <component base="uni0299"/>
  </outline>
</glyph>
<glyph name="uni1D06" format="2">
  <advance width="582"/>
  <unicode hex="1D06"/>
  <anchor x="234" y="0" name="bottom"/>
  <anchor x="348" y="536" name="top"/>
  <outline>
    <contour>
      <point x="59" y="252" type="line"/>
      <point x="326" y="252" type="line"/>
      <point x="337" y="308" type="line"/>
      <point x="70" y="308" type="line"/>
    </contour>
    <component base="uni1D05"/>
  </outline>
</glyph>
<glyph name="uni1D09" format="2">
  <advance width="358"/>
  <unicode hex="1D09"/>
  <anchor x="77" y="-210" name="bottom"/>
  <anchor x="236" y="536" name="top"/>
  <outline>
    <contour>
      <point x="1" y="0" type="line"/>
      <point x="275" y="0" type="line"/>
      <point x="285" y="57" type="line"/>
      <point x="267" y="57" type="line" smooth="yes"/>
      <point x="249" y="57"/>
      <point x="236" y="65"/>
      <point x="236" y="85" type="curve" smooth="yes"/>
      <point x="236" y="90"/>
      <point x="239" y="102"/>
      <point x="242" y="119" type="curve" smooth="yes"/>
      <point x="316" y="445" type="line" smooth="yes"/>
      <point x="323" y="474"/>
      <point x="346" y="479"/>
      <point x="367" y="479" type="curve" smooth="yes"/>
      <point x="386" y="479" type="line"/>
      <point x="398" y="536" type="line"/>
      <point x="122" y="536" type="line"/>
      <point x="110" y="479" type="line"/>
      <point x="133" y="479" type="line" smooth="yes"/>
      <point x="146" y="479"/>
      <point x="162" y="479"/>
      <point x="162" y="457" type="curve" smooth="yes"/>
      <point x="162" y="448"/>
      <point x="156" y="430"/>
      <point x="152" y="412" type="curve" smooth="yes"/>
      <point x="78" y="91" type="line" smooth="yes"/>
      <point x="71" y="60"/>
      <point x="53" y="57"/>
      <point x="32" y="57" type="curve" smooth="yes"/>
      <point x="15" y="57" type="line"/>
    </contour>
    <contour>
      <point x="110" y="-210" type="curve" smooth="yes"/>
      <point x="143" y="-210"/>
      <point x="186" y="-186"/>
      <point x="186" y="-117" type="curve" smooth="yes"/>
      <point x="186" y="-73"/>
      <point x="163" y="-53"/>
      <point x="129" y="-53" type="curve" smooth="yes"/>
      <point x="86" y="-53"/>
      <point x="51" y="-91"/>
      <point x="52" y="-146" type="curve" smooth="yes"/>
      <point x="53" y="-190"/>
      <point x="75" y="-210"/>
    </contour>
  </outline>
</glyph>
<glyph name="uni1D13" format="2">
  <advance width="616"/>
  <unicode hex="1D13"/>
  <anchor x="251" y="0" name="bottom"/>
  <anchor x="365" y="536" name="top"/>
  <outline>
    <contour>
      <point x="596" y="1" type="line"/>
      <point x="600" y="90" type="line"/>
      <point x="27" y="540" type="line"/>
      <point x="24" y="458" type="line"/>
    </contour>
    <component base="uni1D11"/>
  </outline>
</glyph>
<glyph name="uni1D24" format="2">
  <advance width="479"/>
  <unicode hex="1D24"/>
  <anchor x="208" y="0" name="bottom"/>
  <anchor x="347" y="760" name="top"/>
  <outline>
    <contour>
      <point x="193" y="-10" type="curve" smooth="yes"/>
      <point x="321" y="-10"/>
      <point x="408" y="48"/>
      <point x="408" y="122" type="curve" smooth="yes"/>
      <point x="408" y="176"/>
      <point x="363" y="202"/>
      <point x="272" y="202" type="curve"/>
      <point x="264" y="126"/>
      <point x="245" y="55"/>
      <point x="209" y="55" type="curve" smooth="yes"/>
      <point x="188" y="55"/>
      <point x="172" y="85"/>
      <point x="172" y="138" type="curve" smooth="yes"/>
      <point x="172" y="239"/>
      <point x="225" y="285"/>
      <point x="322" y="322" type="curve"/>
      <point x="339" y="402" type="line"/>
      <point x="455" y="447"/>
      <point x="537" y="513"/>
      <point x="537" y="618" type="curve" smooth="yes"/>
      <point x="537" y="723"/>
      <point x="466" y="770"/>
      <point x="347" y="770" type="curve" smooth="yes"/>
      <point x="219" y="770"/>
      <point x="132" y="712"/>
      <point x="132" y="638" type="curve" smooth="yes"/>
      <point x="132" y="584"/>
      <point x="177" y="558"/>
      <point x="268" y="558" type="curve"/>
      <point x="276" y="634"/>
      <point x="295" y="705"/>
      <point x="331" y="705" type="curve" smooth="yes"/>
      <point x="352" y="705"/>
      <point x="368" y="675"/>
      <point x="368" y="622" type="curve" smooth="yes"/>
      <point x="368" y="521"/>
      <point x="315" y="475"/>
      <point x="218" y="438" type="curve"/>
      <point x="201" y="358" type="line"/>
      <point x="85" y="313"/>
      <point x="3" y="247"/>
      <point x="3" y="142" type="curve" smooth="yes"/>
      <point x="3" y="37"/>
      <point x="74" y="-10"/>
    </contour>
  </outline>
</glyph>
<glyph name="uni1D7A" format="2">
  <advance width="1003"/>
  <unicode hex="1D7A"/>
  <anchor x="131" y="0" name="bottom_1"/>
  <anchor x="657" y="0" name="bottom_2"/>
  <anchor x="245" y="268" name="center_1"/>
  <anchor x="771" y="268" name="center_2"/>
  <anchor x="271" y="659" name="top_1"/>
  <anchor x="819" y="760" name="top_2"/>
  <anchor x="413" y="536" name="topright_1"/>
  <anchor x="1088" y="760" name="topright_2"/>
  <outline>
    <contour>
      <point x="-32" y="-145" type="line"/>
      <point x="47" y="-145" type="line"/>
      <point x="879" y="760" type="line"/>
      <point x="803" y="760" type="line"/>
    </contour>
    <component base="t"/>
    <component base="h" xOffset="404"/>
  </outline>
</glyph>
<glyph name="uni1D7B" format="2">
  <advance width="332"/>
  <unicode hex="1D7B"/>
  <anchor x="130" y="0" name="bottom"/>
  <anchor x="244" y="536" name="top"/>
  <outline>
    <contour>
      <point x="23" y="258" type="line"/>
      <point x="351" y="258" type="line"/>
      <point x="366" y="320" type="line"/>
      <point x="38" y="320" type="line"/>
    </contour>
    <component base="uni026A"/>
  </outline>
</glyph>
<glyph name="uni1D7C" format="2">
  <advance width="340"/>
  <unicode hex="1D7C"/>
  <anchor x="123" y="0" name="bottom"/>
  <anchor x="217" y="536" name="top"/>
  <outline>
    <contour>
      <point x="-5" y="258" type="line"/>
      <point x="324" y="258" type="line"/>
      <point x="339" y="320" type="line"/>
      <point x="11" y="320" type="line"/>
    </contour>
    <component base="iota"/>
  </outline>
</glyph>
<glyph name="uni1D7D" format="2">
  <advance width="567"/>
  <unicode hex="1D7D"/>
  <anchor x="78" y="-240" name="bottom"/>
  <anchor x="353" y="536" name="top"/>
  <anchor x="604" y="536" name="topright"/>
  <outline>
    <contour>
      <point x="-10" y="258" type="line"/>
      <point x="594" y="258" type="line"/>
      <point x="609" y="320" type="line"/>
      <point x="5" y="320" type="line"/>
    </contour>
    <component base="p"/>
  </outline>
</glyph>
<glyph name="uni1D82" format="2">
  <advance width="468"/>
  <unicode hex="1D82"/>
  <anchor x="-70" y="-240" name="bottom"/>
  <anchor x="394" y="770" name="top"/>
  <anchor x="561" y="770" name="topright"/>
  <outline>
    <contour>
      <point x="264" y="-197" type="curve" smooth="yes"/>
      <point x="338" y="-197"/>
      <point x="392" y="-165"/>
      <point x="415" y="-38" type="curve" smooth="yes"/>
      <point x="447" y="143" type="line"/>
      <point x="212" y="143" type="line"/>
      <point x="199" y="79" type="line"/>
      <point x="364" y="79" type="line"/>
      <point x="341" y="-32" type="line" smooth="yes"/>
      <point x="330" y="-81"/>
      <point x="309" y="-107"/>
      <point x="268" y="-107" type="curve" smooth="yes"/>
      <point x="245" y="-107"/>
      <point x="230" y="-98"/>
      <point x="215" y="-86" type="curve"/>
      <point x="197" y="-94"/>
      <point x="183" y="-114"/>
      <point x="183" y="-137" type="curve" smooth="yes"/>
      <point x="183" y="-180"/>
      <point x="220" y="-197"/>
    </contour>
    <component base="f"/>
  </outline>
</glyph>
<glyph name="uni1D83" format="2">
  <advance width="693"/>
  <unicode hex="1D83"/>
  <anchor x="176" y="-240" name="bottom"/>
  <anchor x="341" y="536" name="top"/>
  <anchor x="597" y="536" name="topright"/>
  <outline>
    <contour>
      <point x="509" y="-197" type="curve" smooth="yes"/>
      <point x="568" y="-197"/>
      <point x="616" y="-161"/>
      <point x="639" y="-42" type="curve" smooth="yes"/>
      <point x="675" y="138" type="line"/>
      <point x="460" y="138" type="line"/>
      <point x="447" y="77" type="line"/>
      <point x="602" y="77" type="line"/>
      <point x="578" y="-36" type="line" smooth="yes"/>
      <point x="567" y="-86"/>
      <point x="550" y="-110"/>
      <point x="515" y="-110" type="curve" smooth="yes"/>
      <point x="497" y="-110"/>
      <point x="485" y="-102"/>
      <point x="473" y="-90" type="curve"/>
      <point x="456" y="-99"/>
      <point x="444" y="-119"/>
      <point x="444" y="-142" type="curve" smooth="yes"/>
      <point x="444" y="-181"/>
      <point x="474" y="-197"/>
    </contour>
    <component base="uni0261"/>
  </outline>
</glyph>
<glyph name="uni1E11" format="2">
  <advance width="606"/>
  <unicode hex="1E11"/>
  <anchor x="195" y="-240" name="bottom"/>
  <anchor x="408" y="760" name="top"/>
  <anchor x="360" y="268" name="center"/>
  <anchor x="661" y="760" name="topright"/>
  <outline>
    <contour>
      <point x="195" y="-240" type="curve" smooth="yes"/>
      <point x="270" y="-240"/>
      <point x="336" y="-202"/>
      <point x="336" y="-114" type="curve" smooth="yes"/>
      <point x="336" y="-73"/>
      <point x="305" y="-41"/>
      <point x="260" y="-34" type="curve"/>
      <point x="291" y="68" type="line"/>
      <point x="237" y="68" type="line"/>
      <point x="186" y="-82" type="line"/>
      <point x="215" y="-84"/>
      <point x="239" y="-100"/>
      <point x="239" y="-124" type="curve" smooth="yes"/>
      <point x="239" y="-158"/>
      <point x="211" y="-173"/>
      <point x="178" y="-173" type="curve" smooth="yes"/>
      <point x="163" y="-173"/>
      <point x="144" y="-170"/>
      <point x="126" y="-165" type="curve"/>
      <point x="111" y="-227" type="line"/>
      <point x="133" y="-234"/>
      <point x="155" y="-240"/>
    </contour>
    <component base="d"/>
  </outline>
</glyph>
<glyph name="uni1FCD" format="2">
  <advance width="438"/>
  <unicode hex="1FCD"/>
  <anchor x="301" y="536" name="_top"/>
  <anchor x="324" y="724" name="top"/>
  <outline>
    <contour>
      <point x="189" y="545" type="line"/>
      <point x="279" y="557"/>
      <point x="318" y="616"/>
      <point x="318" y="667" type="curve" smooth="yes"/>
      <point x="318" y="707"/>
      <point x="295" y="724"/>
      <point x="262" y="724" type="curve" smooth="yes"/>
      <point x="211" y="724"/>
      <point x="203" y="694"/>
      <point x="203" y="676" type="curve" smooth="yes"/>
      <point x="203" y="637"/>
      <point x="245" y="653"/>
      <point x="245" y="628" type="curve" smooth="yes"/>
      <point x="245" y="615"/>
      <point x="233" y="592"/>
      <point x="189" y="582" type="curve"/>
    </contour>
    <contour>
      <point x="403" y="556" type="curve"/>
      <point x="451" y="556" type="line"/>
      <point x="454" y="569" type="line"/>
      <point x="443" y="619"/>
      <point x="434" y="679"/>
      <point x="429" y="714" type="curve"/>
      <point x="341" y="714" type="line"/>
      <point x="341" y="704" type="line"/>
      <point x="355" y="664"/>
      <point x="384" y="596"/>
    </contour>
  </outline>
</glyph>
<glyph name="uni1FCE" format="2">
  <advance width="439"/>
  <unicode hex="1FCE"/>
  <anchor x="294" y="536" name="_top"/>
  <anchor x="317" y="724" name="top"/>
  <outline>
    <contour>
      <point x="170" y="545" type="line"/>
      <point x="260" y="557"/>
      <point x="299" y="616"/>
      <point x="299" y="667" type="curve" smooth="yes"/>
      <point x="299" y="707"/>
      <point x="276" y="724"/>
      <point x="243" y="724" type="curve" smooth="yes"/>
      <point x="192" y="724"/>
      <point x="184" y="694"/>
      <point x="184" y="676" type="curve" smooth="yes"/>
      <point x="184" y="637"/>
      <point x="226" y="653"/>
      <point x="226" y="628" type="curve" smooth="yes"/>
      <point x="226" y="615"/>
      <point x="214" y="592"/>
      <point x="170" y="582" type="curve"/>
    </contour>
    <contour>
      <point x="318" y="556" type="line"/>
      <point x="375" y="556" type="line"/>
      <point x="402" y="599"/>
      <point x="436" y="656"/>
      <point x="459" y="704" type="curve"/>
      <point x="456" y="714" type="line"/>
      <point x="353" y="714" type="line"/>
      <point x="345" y="674"/>
      <point x="327" y="614"/>
      <point x="312" y="568" type="curve"/>
    </contour>
  </outline>
</glyph>
<glyph name="uni1FEF" format="2">
  <advance width="712"/>
  <unicode hex="1FEF"/>
  <anchor x="410" y="536" name="_top"/>
  <anchor x="451" y="809" name="top"/>
  <outline>
    <contour>
      <point x="459" y="633" type="curve"/>
      <point x="531" y="633" type="line"/>
      <point x="534" y="649" type="line"/>
      <point x="517" y="702"/>
      <point x="504" y="770"/>
      <point x="500" y="809" type="curve"/>
      <point x="367" y="809" type="line"/>
      <point x="364" y="796" type="line"/>
      <point x="385" y="743"/>
      <point x="413" y="691"/>
    </contour>
  </outline>
</glyph>
<glyph name="uni1FFD" format="2">
  <advance width="712"/>
  <unicode hex="1FFD"/>
  <anchor x="391" y="536" name="_top"/>
  <anchor x="433" y="809" name="top"/>
  <outline>
    <contour>
      <point x="323" y="633" type="line"/>
      <point x="408" y="633" type="line"/>
      <point x="439" y="673"/>
      <point x="499" y="741"/>
      <point x="535" y="797" type="curve"/>
      <point x="538" y="809" type="line"/>
      <point x="393" y="809" type="line"/>
      <point x="370" y="751"/>
      <point x="349" y="698"/>
      <point x="327" y="648" type="curve"/>
    </contour>
  </outline>
</glyph>
<glyph name="parenleftsuperior" format="2">
  <advance width="204"/>
  <unicode hex="207D"/>
  <outline>
    <contour>
      <point x="161" y="197" type="curve"/>
      <point x="170" y="241" type="line"/>
      <point x="133" y="277"/>
      <point x="118" y="335"/>
      <point x="118" y="412" type="curve" smooth="yes"/>
      <point x="118" y="534"/>
      <point x="168" y="675"/>
      <point x="278" y="747" type="curve"/>
      <point x="287" y="789" type="line"/>
      <point x="126" y="748"/>
      <point x="24" y="595"/>
      <point x="24" y="427" type="curve" smooth="yes"/>
      <point x="24" y="311"/>
      <point x="73" y="235"/>
    </contour>
  </outline>
</glyph>
<glyph name="parenrightsuperior" format="2">
  <advance width="204"/>
  <unicode hex="207E"/>
  <outline>
    <contour>
      <point x="-22" y="194" type="line"/>
      <point x="140" y="235"/>
      <point x="240" y="390"/>
      <point x="240" y="570" type="curve" smooth="yes"/>
      <point x="240" y="673"/>
      <point x="194" y="748"/>
      <point x="103" y="786" type="curve"/>
      <point x="94" y="742" type="line"/>
      <point x="130" y="706"/>
      <point x="144" y="650"/>
      <point x="144" y="585" type="curve" smooth="yes"/>
      <point x="144" y="457"/>
      <point x="100" y="310"/>
      <point x="-13" y="236" type="curve"/>
    </contour>
  </outline>
</glyph>
<glyph name="parenleftinferior" format="2">
  <advance width="204"/>
  <unicode hex="208D"/>
  <outline>
    <contour>
      <point x="76" y="-288" type="curve"/>
      <point x="85" y="-244" type="line"/>
      <point x="48" y="-208"/>
      <point x="33" y="-150"/>
      <point x="33" y="-73" type="curve" smooth="yes"/>
      <point x="33" y="49"/>
      <point x="83" y="190"/>
      <point x="193" y="262" type="curve"/>
      <point x="202" y="304" type="line"/>
      <point x="41" y="263"/>
      <point x="-61" y="110"/>
      <point x="-61" y="-58" type="curve" smooth="yes"/>
      <point x="-61" y="-174"/>
      <point x="-12" y="-250"/>
    </contour>
  </outline>
</glyph>
<glyph name="uni20A5" format="2">
  <advance width="845"/>
  <unicode hex="20A5"/>
  <anchor x="366" y="0" name="bottom"/>
  <anchor x="480" y="536" name="top"/>
  <anchor x="882" y="536" name="topright"/>
  <outline>
    <contour>
      <point x="98" y="-125" type="line"/>
      <point x="170" y="-125" type="line"/>
      <point x="696" y="666" type="line"/>
      <point x="624" y="666" type="line"/>
    </contour>
    <component base="m"/>
  </outline>
</glyph>
<glyph name="uni20A9" format="2">
  <advance width="907"/>
  <unicode hex="20A9"/>
  <anchor x="387" y="0" name="bottom"/>
  <anchor x="539" y="714" name="top"/>
  <anchor x="962" y="714" name="topright"/>
  <outline>
    <contour>
      <point x="65" y="432" type="line"/>
      <point x="945" y="432" type="line"/>
      <point x="958" y="495" type="line"/>
      <point x="79" y="495" type="line"/>
    </contour>
    <contour>
      <point x="40" y="313" type="line"/>
      <point x="920" y="315" type="line"/>
      <point x="933" y="378" type="line"/>
      <point x="54" y="378" type="line"/>
    </contour>
    <component base="W"/>
  </outline>
</glyph>
<glyph name="uni20B4" format="2">
  <advance width="550"/>
  <unicode hex="20B4"/>
  <anchor x="222" y="0" name="bottom"/>
  <anchor x="374" y="714" name="top"/>
  <outline>
    <contour>
      <point x="23" y="270" type="line"/>
      <point x="548" y="270" type="line"/>
      <point x="561" y="334" type="line"/>
      <point x="37" y="334" type="line"/>
    </contour>
    <contour>
      <point x="47" y="398" type="line"/>
      <point x="572" y="398" type="line"/>
      <point x="585" y="462" type="line"/>
      <point x="60" y="462" type="line"/>
    </contour>
    <component base="uni01A7" xOffset="26"/>
  </outline>
</glyph>
<glyph name="uni20B5" format="2">
  <advance width="575"/>
  <unicode hex="20B5"/>
  <anchor x="301" y="0" name="bottom"/>
  <anchor x="453" y="714" name="top"/>
  <anchor x="650" y="714" name="topright"/>
  <outline>
    <contour>
      <point x="251" y="-87" type="line"/>
      <point x="304" y="-87" type="line"/>
      <point x="485" y="759" type="line"/>
      <point x="431" y="759" type="line"/>
    </contour>
    <component base="C"/>
  </outline>
</glyph>
<glyph name="response" format="2">
  <advance width="609"/>
  <unicode hex="211F"/>
  <anchor x="248" y="0" name="bottom"/>
  <anchor x="400" y="714" name="top"/>
  <anchor x="684" y="714" name="topright"/>
  <outline>
    <contour>
      <point x="130" y="-127" type="line"/>
      <point x="189" y="-134" type="line"/>
      <point x="512" y="787" type="line"/>
      <point x="294" y="852" type="line"/>
      <point x="277" y="800" type="line"/>
      <point x="437" y="753" type="line"/>
    </contour>
    <component base="R"/>
  </outline>
</glyph>
<glyph name="turnedSansSerifL" format="2">
  <advance width="539"/>
  <unicode hex="2142"/>
  <outline>
    <contour>
      <point x="164" y="0" type="line"/>
      <point x="486" y="0" type="line"/>
      <point x="499" y="57" type="line"/>
      <point x="488" y="57" type="line" smooth="yes"/>
      <point x="428" y="57"/>
      <point x="425" y="70"/>
      <point x="438" y="125" type="curve" smooth="yes"/>
      <point x="538" y="602" type="line" smooth="yes"/>
      <point x="548" y="650"/>
      <point x="580" y="657"/>
      <point x="613" y="657" type="curve" smooth="yes"/>
      <point x="624" y="657" type="line"/>
      <point x="636" y="714" type="line"/>
      <point x="121" y="714" type="line"/>
      <point x="65" y="488" type="line"/>
      <point x="125" y="488" type="line"/>
      <point x="138" y="533" type="line" smooth="yes"/>
      <point x="164" y="618"/>
      <point x="194" y="649"/>
      <point x="262" y="649" type="curve" smooth="yes"/>
      <point x="376" y="649" type="line"/>
      <point x="267" y="115" type="line" smooth="yes"/>
      <point x="257" y="65"/>
      <point x="224" y="57"/>
      <point x="188" y="57" type="curve" smooth="yes"/>
      <point x="177" y="57" type="line"/>
    </contour>
  </outline>
</glyph>
<glyph name="reversedSansSerifL" format="2">
  <advance width="504"/>
  <unicode hex="2143"/>
  <outline>
    <contour>
      <point x="-21" y="0" type="line"/>
      <point x="452" y="0" type="line"/>
      <point x="463" y="57" type="line"/>
      <point x="452" y="57" type="line" smooth="yes"/>
      <point x="392" y="57"/>
      <point x="391" y="67"/>
      <point x="401" y="123" type="curve" smooth="yes"/>
      <point x="502" y="602" type="line" smooth="yes"/>
      <point x="512" y="650"/>
      <point x="544" y="657"/>
      <point x="576" y="657" type="curve" smooth="yes"/>
      <point x="588" y="657" type="line"/>
      <point x="600" y="714" type="line"/>
      <point x="264" y="714" type="line"/>
      <point x="250" y="657" type="line"/>
      <point x="277" y="657" type="line" smooth="yes"/>
      <point x="341" y="657"/>
      <point x="341" y="642"/>
      <point x="324" y="567" type="curve" smooth="yes"/>
      <point x="221" y="65" type="line"/>
      <point x="140" y="65" type="line" smooth="yes"/>
      <point x="106" y="65"/>
      <point x="88" y="95"/>
      <point x="86" y="158" type="curve"/>
      <point x="85" y="203" type="line"/>
      <point x="16" y="203" type="line"/>
    </contour>
  </outline>
</glyph>
<glyph name="uni2C61" format="2">
  <advance width="326"/>
  <unicode hex="2C61"/>
  <anchor x="106" y="0" name="bottom"/>
  <anchor x="268" y="760" name="top"/>
  <anchor x="220" y="268" name="center"/>
  <anchor x="411" y="760" name="topright"/>
  <outline>
    <contour>
      <point x="0" y="297" type="line"/>
      <point x="319" y="297" type="line"/>
      <point x="333" y="360" type="line"/>
      <point x="238" y="360" type="line"/>
      <point x="248" y="414" type="line"/>
      <point x="344" y="414" type="line"/>
      <point x="358" y="477" type="line"/>
      <point x="40" y="477" type="line"/>
      <point x="26" y="414" type="line"/>
      <point x="101" y="414" type="line"/>
      <point x="90" y="360" type="line"/>
      <point x="16" y="360" type="line"/>
    </contour>
    <component base="l"/>
  </outline>
</glyph>
<glyph name="uni2C62" format="2">
  <advance width="556"/>
  <unicode hex="2C62"/>
  <anchor x="221" y="0" name="bottom"/>
  <anchor x="373" y="714" name="top"/>
  <anchor x="316" y="357" name="center"/>
  <anchor x="631" y="714" name="topright"/>
  <outline>
    <contour>
      <point x="324" y="285" type="curve" smooth="yes"/>
      <point x="407" y="289"/>
      <point x="444" y="375"/>
      <point x="455" y="437" type="curve"/>
      <point x="376" y="437" type="line"/>
      <point x="371" y="410"/>
      <point x="351" y="384"/>
      <point x="317" y="384" type="curve" smooth="yes"/>
      <point x="274" y="384"/>
      <point x="200" y="443"/>
      <point x="130" y="443" type="curve" smooth="yes"/>
      <point x="41" y="443"/>
      <point x="3" y="350"/>
      <point x="-8" y="290" type="curve"/>
      <point x="69" y="290" type="line"/>
      <point x="77" y="317"/>
      <point x="98" y="342"/>
      <point x="128" y="342" type="curve" smooth="yes"/>
      <point x="215" y="342"/>
      <point x="217" y="285"/>
    </contour>
    <component base="L"/>
  </outline>
</glyph>
<glyph name="uni2C63" format="2">
  <advance width="573"/>
  <unicode hex="2C63"/>
  <anchor x="230" y="0" name="bottom"/>
  <anchor x="382" y="714" name="top"/>
  <anchor x="648" y="714" name="topright"/>
  <outline>
    <contour>
      <point x="84" y="448" type="line"/>
      <point x="384" y="448" type="line"/>
      <point x="397" y="510" type="line"/>
      <point x="97" y="510" type="line"/>
    </contour>
    <component base="P"/>
  </outline>
</glyph>
<glyph name="uni2C65" format="2">
  <advance width="607"/>
  <unicode hex="2C65"/>
  <anchor x="203" y="-205" name="bottom"/>
  <anchor x="399" y="714" name="top"/>
  <anchor x="644" y="536" name="topright"/>
  <outline>
    <contour>
      <point x="74" y="-205" type="line"/>
      <point x="142" y="-205" type="line"/>
      <point x="460" y="714" type="line"/>
      <point x="391" y="714" type="line"/>
    </contour>
    <component base="a"/>
  </outline>
</glyph>
<glyph name="uni2DF5" format="2">
  <unicode hex="2DF5"/>
  <anchor x="57" y="536" name="_top"/>
  <anchor x="74" y="619" name="bottom"/>
  <anchor x="119" y="835" name="top"/>
  <outline>
    <contour>
      <point x="298" y="834" type="line"/>
      <point x="89" y="834" type="line" smooth="yes"/>
      <point x="-22" y="834"/>
      <point x="-89" y="764"/>
      <point x="-89" y="697" type="curve" smooth="yes"/>
      <point x="-89" y="644"/>
      <point x="-50" y="616"/>
      <point x="0" y="616" type="curve" smooth="yes"/>
      <point x="55" y="616"/>
      <point x="80" y="641"/>
      <point x="80" y="664" type="curve" smooth="yes"/>
      <point x="80" y="672"/>
      <point x="77" y="679"/>
      <point x="74" y="682" type="curve"/>
      <point x="63" y="666"/>
      <point x="49" y="648"/>
      <point x="22" y="648" type="curve" smooth="yes"/>
      <point x="-3" y="648"/>
      <point x="-16" y="668"/>
      <point x="-16" y="702" type="curve" smooth="yes"/>
      <point x="-16" y="754"/>
      <point x="18" y="808"/>
      <point x="89" y="808" type="curve" smooth="yes"/>
      <point x="154" y="808" type="line"/>
      <point x="124" y="669" type="line" smooth="yes"/>
      <point x="120" y="649"/>
      <point x="109" y="642"/>
      <point x="95" y="642" type="curve" smooth="yes"/>
      <point x="90" y="642" type="line"/>
      <point x="85" y="620" type="line"/>
      <point x="216" y="620" type="line"/>
      <point x="221" y="642" type="line"/>
      <point x="215" y="642" type="line" smooth="yes"/>
      <point x="200" y="642"/>
      <point x="193" y="649"/>
      <point x="197" y="669" type="curve" smooth="yes"/>
      <point x="227" y="808" type="line"/>
      <point x="235" y="808" type="line" smooth="yes"/>
      <point x="254" y="808"/>
      <point x="258" y="800"/>
      <point x="255" y="775" type="curve"/>
      <point x="254" y="759" type="line"/>
      <point x="286" y="759" type="line"/>
    </contour>
  </outline>
</glyph>
<glyph name="uni2E44" format="2">
  <advance width="402"/>
  <unicode hex="2E44"/>
  <outline>
    <contour>
      <point x="144" y="507" type="line"/>
      <point x="443" y="650" type="line"/>
      <point x="346" y="775" type="line"/>
      <point x="102" y="560" type="line"/>
    </contour>
    <contour>
      <point x="21" y="-74" type="line"/>
      <point x="320" y="69" type="line"/>
      <point x="223" y="194" type="line"/>
      <point x="-21" y="-21" type="line"/>
    </contour>
  </outline>
</glyph>
<glyph name="uniA671" format="2">
  <unicode hex="A671"/>
  <outline>
    <contour>
      <point x="-214" y="579" type="line"/>
      <point x="-157" y="579" type="line"/>
      <point x="-157" y="680" type="line"/>
      <point x="186" y="680" type="line"/>
      <point x="186" y="579" type="line"/>
      <point x="243" y="579" type="line"/>
      <point x="243" y="756" type="line"/>
      <point x="-214" y="756" type="line"/>
    </contour>
    <contour>
      <point x="-214" y="-220" type="line"/>
      <point x="243" y="-220" type="line"/>
      <point x="243" y="-43" type="line"/>
      <point x="186" y="-43" type="line"/>
      <point x="186" y="-144" type="line"/>
      <point x="-157" y="-144" type="line"/>
      <point x="-157" y="-43" type="line"/>
      <point x="-214" y="-43" type="line"/>
    </contour>
  </outline>
</glyph>
<glyph name="uniA672" format="2">
  <unicode hex="A672"/>
  <outline>
    <contour>
      <point x="-24" y="497" type="line"/>
      <point x="24" y="497" type="line"/>
      <point x="24" y="594" type="line"/>
      <point x="132" y="594" type="line"/>
      <point x="132" y="635" type="line"/>
      <point x="24" y="635" type="line"/>
      <point x="24" y="729" type="line"/>
      <point x="-24" y="729" type="line"/>
      <point x="-24" y="635" type="line"/>
      <point x="-131" y="635" type="line"/>
      <point x="-131" y="594" type="line"/>
      <point x="-24" y="594" type="line"/>
    </contour>
    <contour>
      <point x="-170" y="-197" type="line"/>
      <point x="-122" y="-197" type="line"/>
      <point x="-122" y="36" type="line"/>
      <point x="-170" y="36" type="line"/>
    </contour>
    <contour>
      <point x="-424" y="57" type="line"/>
      <point x="-181" y="57" type="line"/>
      <point x="-181" y="98" type="line"/>
      <point x="-424" y="98" type="line"/>
    </contour>
    <contour>
      <point x="-24" y="-197" type="line"/>
      <point x="24" y="-197" type="line"/>
      <point x="24" y="36" type="line"/>
      <point x="-24" y="36" type="line"/>
    </contour>
    <contour>
      <point x="-424" y="252" type="line"/>
      <point x="-181" y="252" type="line"/>
      <point x="-181" y="293" type="line"/>
      <point x="-424" y="293" type="line"/>
    </contour>
    <contour>
      <point x="123" y="-197" type="line"/>
      <point x="171" y="-197" type="line"/>
      <point x="171" y="36" type="line"/>
      <point x="123" y="36" type="line"/>
    </contour>
    <contour>
      <point x="-424" y="447" type="line"/>
      <point x="-181" y="447" type="line"/>
      <point x="-181" y="488" type="line"/>
      <point x="-424" y="488" type="line"/>
    </contour>
    <contour>
      <point x="181" y="57" type="line"/>
      <point x="425" y="57" type="line"/>
      <point x="425" y="98" type="line"/>
      <point x="181" y="98" type="line"/>
    </contour>
    <contour>
      <point x="181" y="252" type="line"/>
      <point x="425" y="252" type="line"/>
      <point x="425" y="293" type="line"/>
      <point x="181" y="293" type="line"/>
    </contour>
    <contour>
      <point x="181" y="447" type="line"/>
      <point x="425" y="447" type="line"/>
      <point x="425" y="488" type="line"/>
      <point x="181" y="488" type="line"/>
    </contour>
  </outline>
</glyph>
<glyph name="uniA740" format="2">
  <advance width="635"/>
  <unicode hex="A740"/>
  <anchor x="261" y="0" name="bottom"/>
  <anchor x="413" y="714" name="top"/>
  <anchor x="710" y="714" name="topright"/>
  <outline>
    <contour>
      <point x="97" y="531" type="line"/>
      <point x="418" y="531" type="line"/>
      <point x="432" y="591" type="line"/>
      <point x="111" y="591" type="line"/>
    </contour>
    <component base="K"/>
  </outline>
</glyph>
<glyph name="uniA745" format="2">
  <advance width="529"/>
  <unicode hex="A745"/>
  <anchor x="218" y="0" name="bottom"/>
  <anchor x="380" y="760" name="top"/>
  <anchor x="614" y="760" name="topright"/>
  <outline>
    <contour>
      <point x="255" y="94" type="line"/>
      <point x="470" y="258" type="line"/>
      <point x="438" y="303" type="line"/>
      <point x="226" y="139" type="line"/>
    </contour>
    <contour>
      <point x="88" y="588" type="line"/>
      <point x="390" y="588" type="line"/>
      <point x="402" y="642" type="line"/>
      <point x="99" y="642" type="line"/>
    </contour>
    <component base="k"/>
  </outline>
</glyph>
<glyph name="uniA749" format="2">
  <advance width="326"/>
  <unicode hex="A749"/>
  <anchor x="106" y="0" name="bottom"/>
  <anchor x="220" y="268" name="center"/>
  <anchor x="268" y="760" name="top"/>
  <anchor x="411" y="760" name="topright"/>
  <outline>
    <contour>
      <point x="72" y="588" type="line"/>
      <point x="375" y="588" type="line"/>
      <point x="389" y="642" type="line"/>
      <point x="87" y="642" type="line"/>
    </contour>
    <component base="l"/>
  </outline>
</glyph>
<glyph name="uniA74A" format="2">
  <advance width="684"/>
  <unicode hex="A74A"/>
  <anchor x="285" y="0" name="bottom"/>
  <anchor x="380" y="357" name="center"/>
  <anchor x="437" y="714" name="top"/>
  <anchor x="759" y="714" name="topright"/>
  <outline>
    <contour>
      <point x="26" y="338" type="line"/>
      <point x="727" y="338" type="line"/>
      <point x="743" y="407" type="line"/>
      <point x="39" y="407" type="line"/>
    </contour>
    <component base="O"/>
  </outline>
</glyph>
<glyph name="uniA74B" format="2">
  <advance width="537"/>
  <unicode hex="A74B"/>
  <anchor x="212" y="0" name="bottom"/>
  <anchor x="326" y="268" name="center"/>
  <anchor x="326" y="536" name="top"/>
  <anchor x="574" y="536" name="topright"/>
  <outline>
    <contour>
      <point x="-27" y="236" type="line"/>
      <point x="578" y="236" type="line"/>
      <point x="590" y="294" type="line"/>
      <point x="-16" y="294" type="line"/>
    </contour>
    <component base="o"/>
  </outline>
</glyph>
<glyph name="uniA750" format="2">
  <advance width="584"/>
  <unicode hex="A750"/>
  <anchor x="142" y="0" name="bottom"/>
  <anchor x="382" y="714" name="top"/>
  <anchor x="648" y="714" name="topright"/>
  <outline>
    <contour>
      <point x="9" y="143" type="line"/>
      <point x="347" y="143" type="line"/>
      <point x="362" y="203" type="line"/>
      <point x="25" y="203" type="line"/>
    </contour>
    <component base="P"/>
  </outline>
</glyph>
<glyph name="uniA751" format="2">
  <advance width="567"/>
  <unicode hex="A751"/>
  <anchor x="54" y="-240" name="bottom"/>
  <anchor x="329" y="536" name="top"/>
  <anchor x="604" y="536" name="topright"/>
  <outline>
    <contour>
      <point x="-83" y="-114" type="line"/>
      <point x="241" y="-114" type="line"/>
      <point x="256" y="-53" type="line"/>
      <point x="-68" y="-53" type="line"/>
    </contour>
    <component base="p"/>
  </outline>
</glyph>
<glyph name="uniA757" format="2">
  <advance width="567"/>
  <unicode hex="A757"/>
  <anchor x="176" y="-240" name="bottom"/>
  <anchor x="341" y="536" name="top"/>
  <anchor x="604" y="536" name="topright"/>
  <outline>
    <contour>
      <point x="212" y="-112" type="line"/>
      <point x="510" y="-112" type="line"/>
      <point x="525" y="-48" type="line"/>
      <point x="227" y="-48" type="line"/>
    </contour>
    <component base="q"/>
  </outline>
</glyph>
<glyph name="uniA765" format="2">
  <advance width="554"/>
  <unicode hex="A765"/>
  <anchor x="169" y="-240" name="bottom"/>
  <anchor x="382" y="760" name="top"/>
  <outline>
    <contour>
      <point x="78" y="574" type="line"/>
      <point x="372" y="574" type="line"/>
      <point x="387" y="635" type="line"/>
      <point x="93" y="635" type="line"/>
    </contour>
    <component base="thorn"/>
  </outline>
</glyph>
<glyph name="uniA767" format="2">
  <advance width="554"/>
  <unicode hex="A767"/>
  <anchor x="169" y="-240" name="bottom"/>
  <anchor x="382" y="760" name="top"/>
  <outline>
    <contour>
      <point x="-56" y="-127" type="line"/>
      <point x="238" y="-127" type="line"/>
      <point x="253" y="-67" type="line"/>
      <point x="-41" y="-67" type="line"/>
    </contour>
    <component base="thorn"/>
  </outline>
</glyph>
<glyph name="uniA791" format="2">
  <advance width="623"/>
  <unicode hex="A791"/>
  <anchor x="250" y="0" name="bottom"/>
  <anchor x="364" y="536" name="top"/>
  <anchor x="650" y="536" name="topright"/>
  <outline>
    <contour>
      <point x="427" y="-228" type="curve" smooth="yes"/>
      <point x="531" y="-228"/>
      <point x="555" y="-131"/>
      <point x="593" y="63" type="curve"/>
      <point x="570" y="99" type="line"/>
      <point x="511" y="3" type="line"/>
      <point x="470" y="-96"/>
      <point x="445" y="-138"/>
      <point x="397" y="-138" type="curve" smooth="yes"/>
      <point x="358" y="-138"/>
      <point x="335" y="-132"/>
      <point x="311" y="-123" type="curve"/>
      <point x="284" y="-182" type="line"/>
      <point x="332" y="-208"/>
      <point x="369" y="-228"/>
    </contour>
    <component base="n"/>
  </outline>
</glyph>
<glyph name="uniA795" format="2">
  <advance width="599"/>
  <unicode hex="A795"/>
  <anchor x="232" y="0" name="bottom"/>
  <anchor x="394" y="760" name="top"/>
  <anchor x="367" y="268" name="center"/>
  <anchor x="684" y="760" name="topright"/>
  <outline>
    <contour>
      <point x="432" y="-197" type="curve" smooth="yes"/>
      <point x="509" y="-197"/>
      <point x="540" y="-137"/>
      <point x="561" y="-50" type="curve" smooth="yes"/>
      <point x="588" y="63" type="line"/>
      <point x="565" y="99" type="line"/>
      <point x="513" y="11" type="line"/>
      <point x="500" y="-43" type="line" smooth="yes"/>
      <point x="488" y="-95"/>
      <point x="457" y="-110"/>
      <point x="434" y="-110" type="curve" smooth="yes"/>
      <point x="418" y="-110"/>
      <point x="406" y="-99"/>
      <point x="395" y="-88" type="curve"/>
      <point x="383" y="-96"/>
      <point x="370" y="-115"/>
      <point x="370" y="-140" type="curve" smooth="yes"/>
      <point x="370" y="-179"/>
      <point x="399" y="-197"/>
    </contour>
    <component base="h"/>
  </outline>
</glyph>
<glyph name="uniA799" format="2">
  <advance width="394"/>
  <unicode hex="A799"/>
  <anchor x="-70" y="-240" name="bottom"/>
  <anchor x="394" y="770" name="top"/>
  <anchor x="561" y="770" name="topright"/>
  <outline>
    <contour>
      <point x="23" y="231" type="line"/>
      <point x="360" y="231" type="line"/>
      <point x="374" y="305" type="line"/>
      <point x="37" y="305" type="line"/>
    </contour>
    <component base="f"/>
  </outline>
</glyph>
<glyph name="uniA7A0" format="2">
  <advance width="711"/>
  <unicode hex="A7A0"/>
  <anchor x="315" y="0" name="bottom"/>
  <anchor x="477" y="714" name="top"/>
  <anchor x="779" y="714" name="topright"/>
  <outline>
    <contour>
      <point x="-5" y="224" type="line"/>
      <point x="686" y="392" type="line"/>
      <point x="700" y="453" type="line"/>
      <point x="8" y="285" type="line"/>
    </contour>
    <component base="G"/>
  </outline>
</glyph>
<glyph name="uniA7A1" format="2">
  <advance width="492"/>
  <unicode hex="A7A1"/>
  <anchor x="138" y="-240" name="bottom"/>
  <anchor x="303" y="536" name="top"/>
  <anchor x="529" y="536" name="topright"/>
  <outline>
    <contour>
      <point x="18" y="279" type="line"/>
      <point x="498" y="372" type="line"/>
      <point x="510" y="431" type="line"/>
      <point x="30" y="336" type="line"/>
    </contour>
    <component base="g"/>
  </outline>
</glyph>
<glyph name="uniA7A4" format="2">
  <advance width="661"/>
  <unicode hex="A7A4"/>
  <anchor x="274" y="0" name="bottom"/>
  <anchor x="426" y="714" name="top"/>
  <anchor x="736" y="714" name="topright"/>
  <outline>
    <contour>
      <point x="-5" y="252" type="line"/>
      <point x="714" y="419" type="line"/>
      <point x="727" y="479" type="line"/>
      <point x="8" y="313" type="line"/>
    </contour>
    <component base="N"/>
  </outline>
</glyph>
<glyph name="uniA7A5" format="2">
  <advance width="602"/>
  <unicode hex="A7A5"/>
  <anchor x="250" y="0" name="bottom"/>
  <anchor x="364" y="536" name="top"/>
  <anchor x="650" y="536" name="topright"/>
  <outline>
    <contour>
      <point x="-26" y="95" type="line"/>
      <point x="618" y="311" type="line"/>
      <point x="633" y="370" type="line"/>
      <point x="-11" y="154" type="line"/>
    </contour>
    <component base="n"/>
  </outline>
</glyph>
<glyph name="uniA7A6" format="2">
  <advance width="609"/>
  <unicode hex="A7A6"/>
  <anchor x="248" y="0" name="bottom"/>
  <anchor x="400" y="714" name="top"/>
  <anchor x="684" y="714" name="topright"/>
  <outline>
    <contour>
      <point x="47" y="396" type="line"/>
      <point x="695" y="538" type="line"/>
      <point x="708" y="599" type="line"/>
      <point x="60" y="457" type="line"/>
    </contour>
    <component base="R"/>
  </outline>
</glyph>
<glyph name="uniA7A7" format="2">
  <advance width="511"/>
  <unicode hex="A7A7"/>
  <anchor x="109" y="0" name="bottom"/>
  <anchor x="333" y="536" name="top"/>
  <anchor x="548" y="536" name="topright"/>
  <outline>
    <contour>
      <point x="-11" y="160" type="line"/>
      <point x="357" y="232" type="line"/>
      <point x="370" y="295" type="line"/>
      <point x="3" y="223" type="line"/>
    </contour>
    <component base="r"/>
  </outline>
</glyph>
<glyph name="uniA7A8" format="2">
  <advance width="510"/>
  <unicode hex="A7A8"/>
  <anchor x="198" y="0" name="bottom"/>
  <anchor x="350" y="714" name="top"/>
  <anchor x="584" y="714" name="topright"/>
  <outline>
    <contour>
      <point x="23" y="298" type="line"/>
      <point x="512" y="414" type="line"/>
      <point x="525" y="475" type="line"/>
      <point x="36" y="358" type="line"/>
    </contour>
    <component base="S"/>
  </outline>
</glyph>
<glyph name="uniA7A9" format="2">
  <advance width="457"/>
  <unicode hex="A7A9"/>
  <anchor x="172" y="0" name="bottom"/>
  <anchor x="286" y="536" name="top"/>
  <anchor x="494" y="536" name="topright"/>
  <outline>
    <contour>
      <point x="21" y="204" type="line"/>
      <point x="434" y="298" type="line"/>
      <point x="447" y="361" type="line"/>
      <point x="35" y="267" type="line"/>
    </contour>
    <component base="s"/>
  </outline>
</glyph>
<glyph name="uniA7AE" format="2">
  <advance width="464"/>
  <unicode hex="A7AE"/>
  <outline>
    <contour>
      <point x="-17" y="0" type="line"/>
      <point x="401" y="0" type="line"/>
      <point x="444" y="175" type="line"/>
      <point x="373" y="175" type="line"/>
      <point x="363" y="142" type="line" smooth="yes"/>
      <point x="345" y="79"/>
      <point x="330" y="61"/>
      <point x="309" y="61" type="curve" smooth="yes"/>
      <point x="290" y="61" type="line"/>
      <point x="375" y="475" type="line"/>
      <point x="394" y="475" type="line" smooth="yes"/>
      <point x="409" y="475"/>
      <point x="418" y="465"/>
      <point x="418" y="434" type="curve" smooth="yes"/>
      <point x="418" y="424"/>
      <point x="416" y="393"/>
      <point x="410" y="361" type="curve"/>
      <point x="481" y="361" type="line"/>
      <point x="513" y="536" type="line"/>
      <point x="95" y="536" type="line"/>
      <point x="52" y="361" type="line"/>
      <point x="123" y="361" type="line"/>
      <point x="133" y="394" type="line" smooth="yes"/>
      <point x="151" y="457"/>
      <point x="165" y="475"/>
      <point x="187" y="475" type="curve" smooth="yes"/>
      <point x="207" y="475" type="line"/>
      <point x="122" y="61" type="line"/>
      <point x="102" y="61" type="line" smooth="yes"/>
      <point x="86" y="61"/>
      <point x="77" y="71"/>
      <point x="77" y="101" type="curve" smooth="yes"/>
      <point x="77" y="113"/>
      <point x="81" y="140"/>
      <point x="87" y="175" type="curve"/>
      <point x="17" y="175" type="line"/>
    </contour>
  </outline>
</glyph>
<glyph name="uniA7B8" format="2">
  <advance width="642"/>
  <unicode hex="A7B8"/>
  <anchor x="364" y="0" name="bottom"/>
  <anchor x="371" y="714" name="top"/>
  <anchor x="698" y="714" name="topright"/>
  <outline>
    <contour>
      <point x="34" y="-11" type="line"/>
      <point x="101" y="-11" type="line"/>
      <point x="728" y="726" type="line"/>
      <point x="661" y="726" type="line"/>
    </contour>
    <component base="U"/>
  </outline>
</glyph>
<glyph name="uniA7B9" format="2">
  <advance width="577"/>
  <unicode hex="A7B9"/>
  <anchor x="246" y="0" name="bottom"/>
  <anchor x="360" y="536" name="top"/>
  <anchor x="642" y="536" name="topright"/>
  <outline>
    <contour>
      <point x="-13" y="-11" type="line"/>
      <point x="51" y="-11" type="line"/>
      <point x="649" y="581" type="line"/>
      <point x="585" y="581" type="line"/>
    </contour>
    <component base="u"/>
  </outline>
</glyph>
<glyph name="uniA7C4" format="2">
  <advance width="591"/>
  <unicode hex="A7C4"/>
  <anchor x="301" y="0" name="bottom"/>
  <anchor x="453" y="714" name="top"/>
  <anchor x="650" y="714" name="topright"/>
  <outline>
    <contour>
      <point x="308" y="-248" type="curve" smooth="yes"/>
      <point x="396" y="-248"/>
      <point x="471" y="-202"/>
      <point x="506" y="-36" type="curve" smooth="yes"/>
      <point x="539" y="119" type="line"/>
      <point x="487" y="113" type="line"/>
      <point x="456" y="-32" type="line" smooth="yes"/>
      <point x="432" y="-145"/>
      <point x="398" y="-174"/>
      <point x="368" y="-174" type="curve" smooth="yes"/>
      <point x="314" y="-174"/>
      <point x="331" y="-99"/>
      <point x="264" y="-99" type="curve" smooth="yes"/>
      <point x="224" y="-99"/>
      <point x="192" y="-122"/>
      <point x="192" y="-171" type="curve" smooth="yes"/>
      <point x="192" y="-222"/>
      <point x="232" y="-248"/>
    </contour>
    <component base="C"/>
  </outline>
</glyph>
<glyph name="uniA7C5" format="2">
  <advance width="504"/>
  <unicode hex="A7C5"/>
  <anchor x="198" y="0" name="bottom"/>
  <anchor x="350" y="714" name="top"/>
  <anchor x="584" y="714" name="topright"/>
  <outline>
    <contour>
      <point x="113" y="-248" type="curve" smooth="yes"/>
      <point x="194" y="-248"/>
      <point x="244" y="-218"/>
      <point x="244" y="-161" type="curve" smooth="yes"/>
      <point x="244" y="-123"/>
      <point x="221" y="-100"/>
      <point x="177" y="-100" type="curve" smooth="yes"/>
      <point x="95" y="-100"/>
      <point x="122" y="-179"/>
      <point x="66" y="-179" type="curve" smooth="yes"/>
      <point x="29" y="-179"/>
      <point x="4" y="-146"/>
      <point x="31" y="-32" type="curve" smooth="yes"/>
      <point x="72" y="139" type="line"/>
      <point x="24" y="154" type="line"/>
      <point x="-20" y="-36" type="line" smooth="yes"/>
      <point x="-45" y="-143"/>
      <point x="-29" y="-248"/>
    </contour>
    <component base="S"/>
  </outline>
</glyph>
<glyph name="uniA7C7" format="2">
  <advance width="659"/>
  <unicode hex="A7C7"/>
  <anchor x="273" y="0" name="bottom"/>
  <anchor x="368" y="357" name="center"/>
  <anchor x="425" y="714" name="top"/>
  <anchor x="734" y="714" name="topright"/>
  <outline>
    <contour>
      <point x="161" y="344" type="line"/>
      <point x="627" y="344" type="line"/>
      <point x="627" y="397" type="line"/>
      <point x="161" y="397" type="line"/>
    </contour>
    <component base="D"/>
  </outline>
</glyph>
<glyph name="uniA7C8" format="2">
  <advance width="606"/>
  <unicode hex="A7C8"/>
  <anchor x="246" y="0" name="bottom"/>
  <anchor x="360" y="268" name="center"/>
  <anchor x="408" y="760" name="top"/>
  <anchor x="661" y="760" name="topright"/>
  <outline>
    <contour>
      <point x="83" y="248" type="line"/>
      <point x="474" y="248" type="line"/>
      <point x="474" y="300" type="line"/>
      <point x="83" y="300" type="line"/>
    </contour>
    <component base="d"/>
  </outline>
</glyph>
<glyph name="uniA7C9" format="2">
  <advance width="509"/>
  <unicode hex="A7C9"/>
  <anchor x="198" y="0" name="bottom"/>
  <anchor x="350" y="714" name="top"/>
  <anchor x="584" y="714" name="topright"/>
  <outline>
    <contour>
      <point x="65" y="346" type="line"/>
      <point x="511" y="346" type="line"/>
      <point x="523" y="399" type="line"/>
      <point x="77" y="399" type="line"/>
    </contour>
    <component base="S"/>
  </outline>
</glyph>
<glyph name="uniA7CA" format="2">
  <advance width="457"/>
  <unicode hex="A7CA"/>
  <anchor x="172" y="0" name="bottom"/>
  <anchor x="286" y="536" name="top"/>
  <anchor x="494" y="536" name="topright"/>
  <outline>
    <contour>
      <point x="42" y="256" type="line"/>
      <point x="434" y="256" type="line"/>
      <point x="446" y="308" type="line"/>
      <point x="54" y="308" type="line"/>
    </contour>
    <component base="s"/>
  </outline>
</glyph>
<glyph name="uniA7FF" format="2">
  <advance width="854"/>
  <unicode hex="A7FF"/>
  <outline>
    <contour>
      <point x="66" y="-10" type="curve" smooth="yes"/>
      <point x="100" y="-10"/>
      <point x="126" y="8"/>
      <point x="134" y="58" type="curve"/>
      <point x="123" y="66"/>
      <point x="105" y="84"/>
      <point x="105" y="119" type="curve" smooth="yes"/>
      <point x="105" y="185"/>
      <point x="114" y="250"/>
      <point x="228" y="400" type="curve"/>
      <point x="237" y="400" type="line"/>
      <point x="207" y="-5" type="line"/>
      <point x="336" y="3" type="line"/>
      <point x="441" y="154"/>
      <point x="450" y="261"/>
      <point x="506" y="384" type="curve"/>
      <point x="508" y="300"/>
      <point x="499" y="113"/>
      <point x="494" y="-10" type="curve"/>
      <point x="610" y="1" type="line"/>
      <point x="716" y="130"/>
      <point x="851" y="319"/>
      <point x="851" y="463" type="curve" smooth="yes"/>
      <point x="851" y="515"/>
      <point x="826" y="546"/>
      <point x="784" y="546" type="curve" smooth="yes"/>
      <point x="751" y="546"/>
      <point x="715" y="528"/>
      <point x="709" y="471" type="curve"/>
      <point x="728" y="466"/>
      <point x="753" y="443"/>
      <point x="753" y="403" type="curve" smooth="yes"/>
      <point x="753" y="340"/>
      <point x="746" y="261"/>
      <point x="650" y="123" type="curve"/>
      <point x="644" y="123" type="line"/>
      <point x="647" y="186"/>
      <point x="644" y="467"/>
      <point x="639" y="531" type="curve"/>
      <point x="511" y="527" type="line"/>
      <point x="465" y="381"/>
      <point x="423" y="249"/>
      <point x="370" y="141" type="curve"/>
      <point x="363" y="141" type="line"/>
      <point x="389" y="534" type="line"/>
      <point x="265" y="523" type="line"/>
      <point x="111" y="359"/>
      <point x="11" y="195"/>
      <point x="11" y="66" type="curve" smooth="yes"/>
      <point x="11" y="20"/>
      <point x="31" y="-10"/>
    </contour>
  </outline>
</glyph>
<glyph name="uniAB30" format="2">
  <advance width="581"/>
  <unicode hex="AB30"/>
  <anchor x="234" y="0" name="bottom"/>
  <anchor x="348" y="536" name="top"/>
  <outline>
    <contour>
      <point x="-20" y="256" type="line"/>
      <point x="568" y="256" type="line"/>
      <point x="581" y="312" type="line"/>
      <point x="-9" y="312" type="line"/>
    </contour>
    <component base="uni0251"/>
  </outline>
</glyph>
<glyph name="uniAB3F" format="2">
  <advance width="479"/>
  <unicode hex="AB3F"/>
  <anchor x="286" y="536" name="bottom"/>
  <anchor x="162" y="0" name="top"/>
  <anchor x="-9" y="0" name="topright"/>
  <outline>
    <contour>
      <point x="38" y="-66" type="line"/>
      <point x="99" y="-66" type="line"/>
      <point x="360" y="593" type="line"/>
      <point x="298" y="593" type="line"/>
    </contour>
    <component base="c" xScale="-1" yScale="-1" xOffset="490" yOffset="536"/>
  </outline>
</glyph>
<glyph name="uniAB41" format="2">
  <advance width="786"/>
  <unicode hex="AB41"/>
  <anchor x="485" y="536" name="bottom"/>
  <anchor x="371" y="0" name="top"/>
  <outline>
    <contour>
      <point x="294" y="-40" type="line"/>
      <point x="370" y="-40" type="line"/>
      <point x="777" y="576" type="line"/>
      <point x="704" y="576" type="line"/>
    </contour>
    <component base="oe" xScale="-1" yScale="-1" xOffset="810" yOffset="536"/>
  </outline>
</glyph>
<glyph name="uniAB4F" format="2">
  <advance width="605"/>
  <unicode hex="AB4F"/>
  <outline>
    <contour>
      <point x="20" y="254" type="line"/>
      <point x="584" y="254" type="line"/>
      <point x="596" y="310" type="line"/>
      <point x="32" y="310" type="line"/>
    </contour>
    <component base="uniAB4E"/>
  </outline>
</glyph>
<glyph name="uniAB60" format="2">
  <advance width="806"/>
  <unicode hex="AB60"/>
  <outline>
    <contour>
      <point x="535" y="-10" type="curve" smooth="yes"/>
      <point x="676" y="-10"/>
      <point x="782" y="53"/>
      <point x="782" y="177" type="curve" smooth="yes"/>
      <point x="782" y="272"/>
      <point x="730" y="316"/>
      <point x="611" y="316" type="curve" smooth="yes"/>
      <point x="593" y="316"/>
      <point x="565" y="314"/>
      <point x="531" y="311" type="curve"/>
      <point x="579" y="536" type="line"/>
      <point x="353" y="536" type="line"/>
      <point x="341" y="479" type="line"/>
      <point x="363" y="479" type="line" smooth="yes"/>
      <point x="387" y="479"/>
      <point x="395" y="472"/>
      <point x="395" y="456" type="curve" smooth="yes"/>
      <point x="395" y="445"/>
      <point x="387" y="415"/>
      <point x="380" y="383" type="curve" smooth="yes"/>
      <point x="348" y="238" type="line" smooth="yes"/>
      <point x="338" y="198"/>
      <point x="335" y="168"/>
      <point x="335" y="138" type="curve" smooth="yes"/>
      <point x="335" y="24"/>
      <point x="413" y="-10"/>
    </contour>
    <contour>
      <point x="173" y="-10" type="curve" smooth="yes"/>
      <point x="250" y="-10"/>
      <point x="290" y="27"/>
      <point x="320" y="63" type="curve"/>
      <point x="292" y="98" type="line"/>
      <point x="274" y="83"/>
      <point x="269" y="76"/>
      <point x="252" y="76" type="curve" smooth="yes"/>
      <point x="235" y="76"/>
      <point x="224" y="91"/>
      <point x="224" y="116" type="curve" smooth="yes"/>
      <point x="224" y="146"/>
      <point x="229" y="168"/>
      <point x="238" y="210" type="curve" smooth="yes"/>
      <point x="309" y="536" type="line"/>
      <point x="73" y="536" type="line"/>
      <point x="62" y="479" type="line"/>
      <point x="80" y="479" type="line" smooth="yes"/>
      <point x="107" y="479"/>
      <point x="117" y="471"/>
      <point x="117" y="451" type="curve" smooth="yes"/>
      <point x="117" y="443"/>
      <point x="115" y="434"/>
      <point x="113" y="422" type="curve" smooth="yes"/>
      <point x="66" y="188" type="line" smooth="yes"/>
      <point x="55" y="139"/>
      <point x="53" y="113"/>
      <point x="53" y="91" type="curve" smooth="yes"/>
      <point x="53" y="26"/>
      <point x="96" y="-10"/>
    </contour>
    <contour>
      <point x="545" y="65" type="curve" smooth="yes"/>
      <point x="509" y="65"/>
      <point x="497" y="85"/>
      <point x="497" y="119" type="curve" smooth="yes"/>
      <point x="497" y="146"/>
      <point x="508" y="209"/>
      <point x="516" y="246" type="curve"/>
      <point x="527" y="247"/>
      <point x="537" y="250"/>
      <point x="562" y="250" type="curve" smooth="yes"/>
      <point x="594" y="250"/>
      <point x="612" y="226"/>
      <point x="612" y="173" type="curve" smooth="yes"/>
      <point x="612" y="106"/>
      <point x="592" y="65"/>
    </contour>
  </outline>
</glyph>
<glyph name="uniFE20" format="2">
  <unicode hex="FE20"/>
  <anchor x="74" y="536" name="_top"/>
  <outline>
    <contour>
      <point x="-206" y="593" type="curve"/>
      <point x="-135" y="593" type="line"/>
      <point x="-63" y="691"/>
      <point x="-7" y="715"/>
      <point x="112" y="715" type="curve"/>
      <point x="116" y="805" type="line"/>
      <point x="-25" y="805"/>
      <point x="-155" y="740"/>
    </contour>
  </outline>
</glyph>
<glyph name="uniFE22" format="2">
  <unicode hex="FE22"/>
  <anchor x="91" y="536" name="_top"/>
  <outline>
    <contour>
      <point x="-204" y="593" type="curve"/>
      <point x="-145" y="593" type="line"/>
      <point x="-118" y="646"/>
      <point x="-80" y="664"/>
      <point x="-41" y="664" type="curve" smooth="yes"/>
      <point x="27" y="664"/>
      <point x="72" y="645"/>
      <point x="111" y="630" type="curve"/>
      <point x="111" y="712" type="line"/>
      <point x="63" y="729"/>
      <point x="2" y="742"/>
      <point x="-47" y="742" type="curve" smooth="yes"/>
      <point x="-146" y="742"/>
      <point x="-183" y="669"/>
    </contour>
  </outline>
</glyph>
<glyph name="uniFE23" format="2">
  <unicode hex="FE23"/>
  <anchor x="70" y="536" name="_top"/>
  <outline>
    <contour>
      <point x="273" y="597" type="curve" smooth="yes"/>
      <point x="368" y="597"/>
      <point x="409" y="673"/>
      <point x="426" y="747" type="curve"/>
      <point x="366" y="747" type="line"/>
      <point x="344" y="688"/>
      <point x="305" y="675"/>
      <point x="263" y="675" type="curve" smooth="yes"/>
      <point x="218" y="675"/>
      <point x="157" y="692"/>
      <point x="108" y="713" type="curve"/>
      <point x="108" y="631" type="line"/>
      <point x="158" y="612"/>
      <point x="220" y="597"/>
    </contour>
  </outline>
</glyph>
<glyph name="combiningmacronlefthalf" format="2">
  <unicode hex="FE24"/>
  <anchor x="57" y="536" name="_top"/>
  <outline>
    <contour>
      <point x="85" y="666" type="line"/>
      <point x="391" y="666" type="line"/>
      <point x="411" y="752" type="line"/>
      <point x="105" y="752" type="line"/>
    </contour>
  </outline>
</glyph>
<glyph name="combiningmacronrighthalf" format="2">
  <unicode hex="FE25"/>
  <anchor x="57" y="536" name="_top"/>
  <outline>
    <contour>
      <point x="-223" y="666" type="line"/>
      <point x="83" y="666" type="line"/>
      <point x="103" y="752" type="line"/>
      <point x="-203" y="752" type="line"/>
    </contour>
  </outline>
</glyph>
<glyph name="combiningconjoiningmacron" format="2">
  <unicode hex="FE26"/>
  <anchor x="57" y="536" name="_top"/>
  <outline>
    <contour>
      <point x="-209" y="666" type="line"/>
      <point x="377" y="666" type="line"/>
      <point x="397" y="752" type="line"/>
      <point x="-189" y="752" type="line"/>
    </contour>
  </outline>
</glyph>
<glyph name="uniFE27" format="2">
  <unicode hex="FE27"/>
  <anchor x="-57" y="0" name="_bottom"/>
  <outline>
    <contour>
      <point x="-103" y="-215" type="curve"/>
      <point x="-87" y="-139" type="line"/>
      <point x="-222" y="-139"/>
      <point x="-306" y="-104"/>
      <point x="-335" y="-26" type="curve"/>
      <point x="-396" y="-26" type="line"/>
      <point x="-360" y="-164"/>
      <point x="-263" y="-215"/>
    </contour>
  </outline>
</glyph>
<glyph name="uniFE29" format="2">
  <unicode hex="FE29"/>
  <anchor x="-57" y="0" name="_bottom"/>
  <outline>
    <contour>
      <point x="-435" y="-204" type="curve"/>
      <point x="-381" y="-204" type="line"/>
      <point x="-353" y="-160"/>
      <point x="-309" y="-135"/>
      <point x="-267" y="-135" type="curve" smooth="yes"/>
      <point x="-229" y="-135"/>
      <point x="-180" y="-148"/>
      <point x="-94" y="-174" type="curve"/>
      <point x="-76" y="-90" type="line"/>
      <point x="-136" y="-69"/>
      <point x="-193" y="-59"/>
      <point x="-248" y="-59" type="curve" smooth="yes"/>
      <point x="-328" y="-59"/>
      <point x="-396" y="-113"/>
    </contour>
  </outline>
</glyph>
<glyph name="uniFE2A" format="2">
  <unicode hex="FE2A"/>
  <anchor x="-57" y="0" name="_bottom"/>
  <outline>
    <contour>
      <point x="81" y="-204" type="curve" smooth="yes"/>
      <point x="153" y="-204"/>
      <point x="223" y="-150"/>
      <point x="266" y="-59" type="curve"/>
      <point x="212" y="-59" type="line"/>
      <point x="175" y="-104"/>
      <point x="144" y="-128"/>
      <point x="97" y="-128" type="curve" smooth="yes"/>
      <point x="57" y="-128"/>
      <point x="7" y="-115"/>
      <point x="-76" y="-89" type="curve"/>
      <point x="-93" y="-173" type="line"/>
      <point x="-35" y="-194"/>
      <point x="25" y="-204"/>
    </contour>
  </outline>
</glyph>
<glyph name="uniFE2B" format="2">
  <unicode hex="FE2B"/>
  <anchor x="-57" y="0" name="_bottom"/>
  <outline>
    <contour>
      <point x="-101" y="-209" type="line"/>
      <point x="225" y="-209" type="line"/>
      <point x="242" y="-134" type="line"/>
      <point x="-85" y="-134" type="line"/>
    </contour>
  </outline>
</glyph>
<glyph name="uniFE2F" format="2">
  <unicode hex="FE2F"/>
  <anchor x="126" y="536" name="_top"/>
  <outline>
    <contour>
      <point x="-30" y="616" type="line"/>
      <point x="152" y="616" type="line" smooth="yes"/>
      <point x="184" y="616"/>
      <point x="200" y="642"/>
      <point x="200" y="681" type="curve" smooth="yes"/>
      <point x="200" y="716"/>
      <point x="186" y="731"/>
      <point x="157" y="731" type="curve" smooth="yes"/>
      <point x="131" y="731"/>
      <point x="117" y="709"/>
      <point x="113" y="682" type="curve"/>
      <point x="-27" y="682" type="line"/>
    </contour>
  </outline>
</glyph>
<glyph name="afii10084.loclSRB" format="2">
  <advance width="851"/>
  <anchor x="459" y="536" name="_top"/>
  <anchor x="486" y="692" name="top"/>
  <anchor x="369" y="0" name="bottom"/>
  <outline>
    <contour>
      <point x="204" y="606" type="line"/>
      <point x="734" y="606" type="line"/>
      <point x="752" y="692" type="line"/>
      <point x="222" y="692" type="line"/>
    </contour>
    <component base="afii10090"/>
  </outline>
</glyph>
<glyph name="carondot" format="2">
  <advance width="471"/>
  <outline>
    <contour>
      <point x="336" y="754" type="curve" smooth="yes"/>
      <point x="364" y="754"/>
      <point x="394" y="771"/>
      <point x="394" y="822" type="curve" smooth="yes"/>
      <point x="394" y="858"/>
      <point x="373" y="876"/>
      <point x="341" y="876" type="curve" smooth="yes"/>
      <point x="304" y="876"/>
      <point x="283" y="849"/>
      <point x="283" y="808" type="curve" smooth="yes"/>
      <point x="283" y="771"/>
      <point x="304" y="754"/>
    </contour>
    <component base="caron" xOffset="33"/>
  </outline>
</glyph>
<glyph name="hbar.sc" format="2">
  <advance width="596"/>
  <anchor x="267" y="0" name="bottom"/>
  <anchor x="393" y="571" name="top"/>
  <anchor x="325" y="286" name="center"/>
  <anchor x="682" y="571" name="topright"/>
  <outline>
    <contour>
      <point x="56" y="396" type="line"/>
      <point x="655" y="396" type="line"/>
      <point x="667" y="445" type="line"/>
      <point x="68" y="445" type="line"/>
    </contour>
    <component base="h.sc"/>
  </outline>
</glyph>
<glyph name="lslash.sc" format="2">
  <advance width="496"/>
  <anchor x="192" y="0" name="bottom"/>
  <anchor x="314" y="571" name="top"/>
  <anchor x="248" y="286" name="center"/>
  <anchor x="537" y="571" name="topright"/>
  <outline>
    <contour>
      <point x="41" y="183" type="line"/>
      <point x="391" y="378" type="line"/>
      <point x="409" y="451" type="line"/>
      <point x="59" y="254" type="line"/>
    </contour>
    <component base="l.sc"/>
  </outline>
</glyph>
<glyph name="uni1D24.old" format="2">
  <advance width="395"/>
  <anchor x="141" y="0" name="bottom"/>
  <anchor x="255" y="536" name="top"/>
  <outline>
    <contour>
      <point x="174" y="-8" type="curve" smooth="yes"/>
      <point x="297" y="-8"/>
      <point x="370" y="48"/>
      <point x="370" y="112" type="curve" smooth="yes"/>
      <point x="370" y="134"/>
      <point x="359" y="155"/>
      <point x="337" y="164" type="curve"/>
      <point x="322" y="129"/>
      <point x="271" y="52"/>
      <point x="171" y="52" type="curve" smooth="yes"/>
      <point x="134" y="52"/>
      <point x="117" y="70"/>
      <point x="117" y="98" type="curve" smooth="yes"/>
      <point x="117" y="158"/>
      <point x="179" y="172"/>
      <point x="292" y="230" type="curve" smooth="yes"/>
      <point x="379" y="275"/>
      <point x="423" y="324"/>
      <point x="423" y="418" type="curve" smooth="yes"/>
      <point x="423" y="497"/>
      <point x="356" y="545"/>
      <point x="268" y="545" type="curve" smooth="yes"/>
      <point x="156" y="545"/>
      <point x="87" y="508"/>
      <point x="87" y="448" type="curve" smooth="yes"/>
      <point x="87" y="400"/>
      <point x="131" y="379"/>
      <point x="194" y="379" type="curve"/>
      <point x="206" y="450"/>
      <point x="232" y="480"/>
      <point x="277" y="480" type="curve" smooth="yes"/>
      <point x="304" y="480"/>
      <point x="318" y="464"/>
      <point x="318" y="439" type="curve" smooth="yes"/>
      <point x="318" y="403"/>
      <point x="298" y="379"/>
      <point x="170" y="322" type="curve" smooth="yes"/>
      <point x="82" y="283"/>
      <point x="6" y="214"/>
      <point x="6" y="119" type="curve" smooth="yes"/>
      <point x="6" y="36"/>
      <point x="77" y="-8"/>
    </contour>
  </outline>
</glyph>
